grf
version=1
nRows=7
nColumns=46
inDegrees=no
endheader
time	ground_force_1_vx	ground_force_1_vy	ground_force_1_vz	ground_force_1_px	ground_force_1_py	ground_force_1_pz	ground_moment_1_mx	ground_moment_1_my	ground_moment_1_mz	ground_force_2_vx	ground_force_2_vy	ground_force_2_vz	ground_force_2_px	ground_force_2_py	ground_force_2_pz	ground_moment_2_mx	ground_moment_2_my	ground_moment_2_mz	ground_force_3_vx	ground_force_3_vy	ground_force_3_vz	ground_force_3_px	ground_force_3_py	ground_force_3_pz	ground_moment_3_mx	ground_moment_3_my	ground_moment_3_mz	ground_force_4_vx	ground_force_4_vy	ground_force_4_vz	ground_force_4_px	ground_force_4_py	ground_force_4_pz	ground_moment_4_mx	ground_moment_4_my	ground_moment_4_mz	ground_force_5_vx	ground_force_5_vy	ground_force_5_vz	ground_force_5_px	ground_force_5_py	ground_force_5_pz	ground_moment_5_mx	ground_moment_5_my	ground_moment_5_mz
      0.60000000	      0.00000000	     -0.00000000	      0.00000000	      0.00000000	      0.00000000	      0.00000000	      0.00000000	      0.00000000	      0.00000000	    -87.26337180	   -233.42257885	   -959.55041504	    337.37911593	    126.30272217	     -0.00000000	      0.00000000	     -0.00000000	  -3533.78816689	    -22.62438208	     47.17315182	   -430.54580688	    137.73905314	   -416.27420586	      0.00000000	      0.00000000	     -0.00000000	   -667.22567381	      0.00000000	     -0.00000000	      0.00000000	      0.00000000	      0.00000000	      0.00000000	      0.00000000	      0.00000000	      0.00000000	      0.00000000	     -0.00000000	      0.00000000	      0.00000000	      0.00000000	      0.00000000	      0.00000000	      0.00000000	      0.00000000
      0.61000000	      0.00000000	     -0.00000000	      0.00000000	      0.00000000	      0.00000000	      0.00000000	      0.00000000	      0.00000000	      0.00000000	    -78.23768498	   -242.29866360	   -909.57690430	    336.43730050	    124.34221357	     -0.00000000	      0.00000000	     -0.00000000	  -2850.07809093	    -29.70278091	     85.86050009	   -481.31695557	    138.58228035	   -421.67467948	      0.00000000	      0.00000000	     -0.00000000	  -1120.66616254	      0.00000000	     -0.00000000	      0.00000000	      0.00000000	      0.00000000	      0.00000000	      0.00000000	      0.00000000	      0.00000000	      0.00000000	     -0.00000000	      0.00000000	      0.00000000	      0.00000000	      0.00000000	      0.00000000	      0.00000000	      0.00000000
      0.62000000	      0.00000000	     -0.00000000	      0.00000000	      0.00000000	      0.00000000	      0.00000000	      0.00000000	      0.00000000	      0.00000000	    -65.02690780	   -242.97472152	   -837.01672363	    334.84775750	    123.60322839	     -0.00000000	     -0.00000000	     -0.00000000	  -2066.31617622	    -11.52414948	     90.85374589	   -503.04516602	    138.39643276	   -425.37738702	      0.00000000	      0.00000000	     -0.00000000	  -1024.43078526	      0.00000000	     -0.00000000	      0.00000000	      0.00000000	      0.00000000	      0.00000000	      0.00000000	      0.00000000	      0.00000000	      0.00000000	     -0.00000000	      0.00000000	      0.00000000	      0.00000000	      0.00000000	      0.00000000	      0.00000000	      0.00000000
      0.63000000	      0.00000000	     -0.00000000	      0.00000000	      0.00000000	      0.00000000	      0.00000000	      0.00000000	      0.00000000	      0.00000000	    -50.21162975	   -236.73064419	   -736.47631836	    333.02372661	    120.89499986	     -0.00000000	      0.00000000	     -0.00000000	  -1406.45280085	     -1.38916083	     89.71733110	   -503.32748413	    137.31917791	   -429.60513841	      0.00000000	     -0.00000000	     -0.00000000	   -939.36004514	      0.00000000	     -0.00000000	      0.00000000	      0.00000000	      0.00000000	      0.00000000	      0.00000000	      0.00000000	      0.00000000	      0.00000000	     -0.00000000	      0.00000000	      0.00000000	      0.00000000	      0.00000000	      0.00000000	      0.00000000	      0.00000000
      0.64000000	      0.00000000	     -0.00000000	      0.00000000	      0.00000000	      0.00000000	      0.00000000	      0.00000000	      0.00000000	      0.00000000	    -36.04508524	   -220.66048644	   -622.59820557	    331.50403843	    120.21722094	     -0.00000000	      0.00000000	     -0.00000000	   -939.78661436	     14.69812281	     86.00047889	   -502.64663696	    134.78253389	   -432.29349207	      0.00000000	      0.00000000	     -0.00000000	   -848.33912114	      0.00000000	     -0.00000000	      0.00000000	      0.00000000	      0.00000000	      0.00000000	      0.00000000	      0.00000000	      0.00000000	      0.00000000	     -0.00000000	      0.00000000	      0.00000000	      0.00000000	      0.00000000	      0.00000000	      0.00000000	      0.00000000
      0.65000000	      0.00000000	     -0.00000000	      0.00000000	      0.00000000	      0.00000000	      0.00000000	      0.00000000	      0.00000000	      0.00000000	    -23.50504900	   -189.13827156	   -490.58874512	    330.97238841	    117.86593365	     -0.00000000	      0.00000000	     -0.00000000	   -603.40134785	     38.82905255	    100.18993675	   -548.60357666	    131.06141480	   -438.22893126	      0.00000000	      0.00000000	     -0.00000000	   -102.60925053	      0.00000000	     -0.00000000	      0.00000000	      0.00000000	      0.00000000	      0.00000000	      0.00000000	      0.00000000	      0.00000000	      0.00000000	     -0.00000000	      0.00000000	      0.00000000	      0.00000000	      0.00000000	      0.00000000	      0.00000000	      0.00000000
      0.66000000	      0.00000000	     -0.00000000	      0.00000000	      0.00000000	      0.00000000	      0.00000000	      0.00000000	      0.00000000	      0.00000000	    -18.54308913	   -138.92814353	   -356.08319092	    330.00533696	    109.30400873	     -0.00000000	      0.00000000	      0.00000000	   -299.50105686	     63.44259692	    131.15303804	   -623.23663330	    127.18039893	   -446.77718148	      0.00000000	      0.00000000	     -0.00000000	   -391.30433767	      0.00000000	     -0.00000000	      0.00000000	      0.00000000	      0.00000000	      0.00000000	      0.00000000	      0.00000000	      0.00000000	      0.00000000	     -0.00000000	      0.00000000	      0.00000000	      0.00000000	      0.00000000	      0.00000000	      0.00000000	      0.00000000
